<svg
    viewBox="0 0 36 36"
    fill="none"
    xmlns="http://www.w3.org/2000/svg"
  >
    <path
      d="M33.9217 4.42969L17.88 0.0546927C17.6325 -0.0182309 17.3692 -0.0182309 17.1217 0.0546927L1.08002 4.42969C0.761869 4.51515 0.482024 4.70581 0.286064 4.97062C0.090105 5.23543 -0.0104224 5.55879 0.000855283 5.88803V27.763C0.000982799 28.0627 0.0934485 28.3551 0.265669 28.6004C0.437891 28.8457 0.681503 29.032 0.963355 29.1339L17.005 34.9672C17.3051 35.0843 17.6383 35.0843 17.9384 34.9672L33.98 29.1339C34.2728 29.0418 34.529 28.8598 34.7123 28.6137C34.8956 28.3675 34.9966 28.0699 35.0009 27.763V5.88803C35.0121 5.55879 34.9116 5.23543 34.7156 4.97062C34.5197 4.70581 34.2398 4.51515 33.9217 4.42969ZM17.5009 2.97136L30.6259 6.61719L17.5009 10.263L4.37585 6.61719L17.5009 2.97136ZM2.91752 11.7214V9.25678L16.0425 12.8297V31.5109L2.91752 26.7422V11.7214ZM32.0842 26.7422L18.9592 31.5109V12.8297L32.0842 9.25678V26.7568V26.7422Z"
    />
  </svg>