<svg
  viewBox="0 0 41 40"
  fill="none"
  xmlns="http://www.w3.org/2000/svg"
>
  <path
    d="M16.5625 3.33301L15.7355 7.53874C14.3451 8.05676 13.0683 8.78289 11.9496 9.69043L7.86063 8.2972L3.91992 15.0355L7.19506 17.848C7.06915 18.6117 7.00395 19.3194 7.00395 19.9997C7.00395 20.681 7.07111 21.3874 7.19506 22.1514V22.1546L3.91992 24.9671L7.86063 31.7021L11.9463 30.3122C13.0651 31.2202 14.3448 31.9423 15.7355 32.4606L16.5625 36.6663H24.4373L25.2643 32.4606C26.6556 31.9422 27.9309 31.2173 29.0502 30.3089L33.1391 31.7021L37.0766 24.9671L33.8047 22.1514C33.9306 21.3877 33.9958 20.6799 33.9958 19.9997C33.9958 19.3204 33.9303 18.6136 33.8047 17.8512V17.848L37.0799 15.0322L33.1391 8.2972L29.0535 9.68717C27.9346 8.77914 26.655 8.05706 25.2643 7.53874L24.4373 3.33301H16.5625ZM19.3434 6.66634H21.6564L22.3121 9.99967L24.0716 10.6572C25.1321 11.0521 26.085 11.5943 26.9118 12.2653L28.3681 13.4437L31.6103 12.3434L32.7668 14.3193L30.177 16.5459L30.4736 18.3786V18.3818C30.5767 19.0067 30.6218 19.531 30.6218 19.9997C30.6218 20.4684 30.5767 20.9925 30.4736 21.6175L30.1737 23.4502L32.7635 25.6768L31.607 27.6559L28.3681 26.5524L26.9085 27.734C26.0817 28.4051 25.1321 28.9472 24.0716 29.3421H24.0683L22.3088 29.9997L21.6531 33.333H19.3434L18.6877 29.9997L16.9282 29.3421C15.8677 28.9472 14.9148 28.4051 14.088 27.734L12.6317 26.5557L9.38947 27.6559L8.23295 25.68L10.826 23.4502L10.5262 21.624V21.6208C10.4245 20.9932 10.3779 20.4675 10.3779 19.9997C10.3779 19.531 10.4231 19.0068 10.5262 18.3818L10.826 16.5492L8.23295 14.3226L9.38947 12.3434L12.6317 13.4469L14.088 12.2653C14.9148 11.5943 15.8677 11.0521 16.9282 10.6572L18.6877 9.99967L19.3434 6.66634ZM20.4999 13.333C16.7944 13.333 13.7519 16.3388 13.7519 19.9997C13.7519 23.6605 16.7944 26.6663 20.4999 26.6663C24.2054 26.6663 27.2479 23.6605 27.2479 19.9997C27.2479 16.3388 24.2054 13.333 20.4999 13.333ZM20.4999 16.6663C22.3749 16.6663 23.8739 18.1472 23.8739 19.9997C23.8739 21.8521 22.3749 23.333 20.4999 23.333C18.6248 23.333 17.1259 21.8521 17.1259 19.9997C17.1259 18.1472 18.6248 16.6663 20.4999 16.6663Z"
  />
</svg>